PathFileType	4	(X/Y/Z)	Captury_Subj1_squat02.trc
DataRate	CameraRate	NumFrames	NumMarkers	Units	OrigDataRate	OrigDataStartFrame	OrigNumFrames
60.0	60.0	7	47	mm	59.99879837036133	143	284
Frame#	Time		LeftUpLeg_		RightUpLeg_		LeftLeg_		RightLeg_		LeftFoot_		RightFoot_		LeftToeBase_		RightToeBase_		Knee_Lateral_r		Knee_Lateral_l		Ankle_Lateral_r		Ankle_Lateral_l		LeftArm_		LeftForeArm_		LeftHand_		LeftHandEE		RightArm_		RightForeArm_		RightHand_		RightHandEE		Spine_		Spine1_		Spine2_		Spine3_		Spine4_		Spine5_		Spine_x		Spine_y		Spine_z		RASI		LASI		RIPS		LIPS		RTHI		LTHI		RTIB		LTIB		RTOE		LTOE		RHEE		LHEE		RHipAngles		LHipAngles		RKneeAngles		LKneeAngles		RAnkleAngles		LAnkleAngles
			X1	Y1	Z1	X2	Y2	Z2	X3	Y3	Z3	X4	Y4	Z4	X5	Y5	Z5	X6	Y6	Z6	X7	Y7	Z7	X8	Y8	Z8	X9	Y9	Z9	X10	Y10	Z10	X11	Y11	Z11	X12	Y12	Z12	X13	Y13	Z13	X14	Y14	Z14	X15	Y15	Z15	X16	Y16	Z16	X17	Y17	Z17	X18	Y18	Z18	X19	Y19	Z19	X20	Y20	Z20	X21	Y21	Z21	X22	Y22	Z22	X23	Y23	Z23	X24	Y24	Z24	X25	Y25	Z25	X26	Y26	Z26	X27	Y27	Z27	X28	Y28	Z28	X29	Y29	Z29	X30	Y30	Z30	X31	Y31	Z31	X32	Y32	Z32	X33	Y33	Z33	X34	Y34	Z34	X35	Y35	Z35	X36	Y36	Z36	X37	Y37	Z37	X38	Y38	Z38	X39	Y39	Z39	X40	Y40	Z40	X41	Y41	Z41	X42	Y42	Z42	X43	Y43	Z43	X44	Y44	Z44	X45	Y45	Z45	X46	Y46	Z46	X47	Y47	Z47

143	2.36667	-165.85269	564.22009	296.55472	-0.31726	568.37402	285.56793	-275.46729	431.45325	-62.95837	78.44145	424.33359	-77.66956	-225.75356	86.02283	53.51223	53.97859	81.54468	53.69405	-245.42018	28.37940	-57.79243	76.75955	29.68486	-59.83947	123.37910	421.76529	-69.46624	-319.20490	426.62985	-50.42684	95.70419	79.99540	79.86369	-264.93817	83.45084	83.28179	-243.79460	867.43878	-89.53075	-251.55736	905.18225	-363.18362	-249.77158	955.29791	-591.19659	-259.71365	973.03607	-673.93665	23.10491	869.30597	-103.80432	12.40628	902.99255	-377.88733	-5.04884	956.93909	-604.35986	-0.59625	972.38971	-688.03101	-88.48100	642.86731	238.71063	-94.38894	691.34186	163.01680	-97.49014	741.61047	124.38699	-100.05801	816.91315	88.77724	-105.82067	894.47614	-8.70697	0.00000	0.00000	0.00000	-42.05011	644.03247	235.62895	-91.50285	675.27386	205.43352	-87.16849	676.26105	271.11157	49.47475	546.77386	171.66965	-229.11061	539.78302	190.15973	-48.73567	644.39172	275.65210	-123.02510	642.52753	280.58279	99.99547	494.65518	128.35304	-278.68576	492.55011	147.06979	105.79241	263.89551	-25.37618	-282.45145	215.74754	-1.75219	88.87968	15.13955	-128.81940	-256.60135	-1.08572	-122.00678	52.41565	20.81362	103.74989	-220.22237	27.53696	105.90595	-115.07369	11.51113	9.33422	-117.23064	9.96769	8.25626	-84.44743	-0.17626	-0.06837	-84.94883	0.11206	-0.40226	-12.74383	-0.95455	9.21231	-7.96885	-5.64022	9.25085
144	2.38333	-166.19160	556.15442	298.05200	-0.65445	560.65240	287.22781	-274.97775	430.94794	-64.41309	78.72444	423.62024	-78.57709	-225.81012	85.88138	53.36073	53.90894	81.24652	53.79930	-245.07611	28.30803	-58.05024	76.74074	29.47475	-59.76418	123.65869	420.97977	-70.37806	-318.79083	426.10617	-52.15520	95.64383	79.65082	79.95132	-265.17999	83.30548	82.88451	-243.91861	855.79053	-90.96994	-252.35207	892.23639	-364.77884	-251.18100	941.31769	-593.02075	-261.37524	958.41418	-675.86511	22.99853	857.34802	-104.82057	12.37153	889.76196	-379.05981	-5.34103	943.22839	-605.62616	-0.83757	958.52228	-689.32336	-88.96439	634.40021	239.47504	-94.86449	682.06189	163.33760	-97.96612	731.90894	124.26479	-100.50538	806.83325	87.99716	-106.05932	883.46729	-10.15298	0.00000	0.00000	0.00000	-42.53302	635.66187	236.43898	-92.03359	666.44434	205.85306	-87.78563	668.13843	271.52231	49.34223	537.98700	173.62662	-229.24603	530.41711	191.84297	-49.27052	636.42596	276.44775	-123.56072	634.40735	281.30542	99.94747	490.08945	128.75461	-278.76169	487.97534	146.74693	105.90460	263.30051	-25.83360	-282.22614	215.41165	-2.64336	88.86384	15.07699	-128.77454	-256.00317	-1.03894	-122.36237	52.42869	20.48737	103.82358	-221.01663	27.38820	105.81892	-116.76637	11.55846	9.29177	-118.95638	9.87256	7.87888	-85.70797	-0.12333	-0.07441	-86.27210	0.14289	-0.39637	-12.96287	-0.93317	9.31826	-8.16609	-5.63966	9.61018
145	2.40000	-166.30832	548.08405	299.85788	-0.78696	553.03101	288.98785	-274.33765	430.55945	-65.39502	78.94780	423.14471	-79.33801	-225.78604	85.71362	53.27734	53.96647	81.11804	53.90135	-244.77386	28.57447	-58.40456	76.74934	29.34833	-59.67287	123.89316	420.50354	-71.20026	-318.22571	425.72772	-53.40435	95.73251	79.49647	80.00202	-265.32007	83.07750	82.57558	-244.00177	844.58264	-92.71102	-253.06606	879.41193	-366.71008	-252.43504	927.22260	-595.22363	-262.73352	944.39844	-678.03870	22.96017	845.77539	-106.00424	12.34204	876.85596	-380.39810	-5.60095	930.03247	-607.01453	-0.69381	944.61884	-690.81525	-89.38223	625.35956	239.62019	-95.37261	671.87799	162.83194	-98.50294	721.29974	123.28848	-100.99056	795.99084	86.62505	-106.26678	872.33502	-11.71552	0.00000	0.00000	0.00000	-42.95529	626.74713	236.57126	-92.57073	656.65381	205.31006	-88.35518	659.78961	270.92834	49.34677	528.11359	175.91988	-229.21490	519.78827	194.21350	-49.71135	628.35107	276.55203	-123.99446	626.13098	281.43033	100.00668	485.79034	129.19748	-278.64948	483.49380	146.81799	106.03749	262.92548	-26.24392	-281.89862	215.12917	-3.29395	88.81618	15.04708	-128.71313	-255.51335	-0.46987	-122.88544	52.60435	20.36798	103.94000	-221.72591	27.04862	105.60538	-119.09137	11.62462	9.20079	-121.31808	9.72607	7.42178	-86.94722	-0.15596	-0.07635	-87.53790	0.13749	-0.38460	-13.10910	-0.91203	9.41724	-8.48342	-5.63852	9.95456
146	2.41667	-166.18723	540.05402	301.52557	-0.70008	545.51569	290.38412	-273.67853	429.94724	-66.18933	79.31592	422.71976	-80.30539	-225.70374	85.31509	53.33549	53.95855	81.12814	53.97507	-244.54849	28.76541	-58.67025	76.63306	29.10260	-59.50394	124.26823	420.03574	-72.22026	-317.62494	425.10245	-54.41966	95.75237	79.50066	80.03087	-265.36807	82.60344	82.45018	-244.01358	833.23535	-94.39243	-253.77426	866.69867	-368.53778	-253.77373	913.43762	-597.27380	-263.93839	930.05609	-680.21906	22.97751	834.65399	-106.89566	12.34181	864.48511	-381.42746	-5.54006	916.96039	-608.21210	-0.44014	930.97211	-692.09930	-89.64709	616.75488	240.07396	-95.82790	662.37683	162.79477	-99.03584	711.41180	122.82030	-101.53125	785.82135	85.64474	-106.56452	861.58289	-13.12498	0.00000	0.00000	0.00000	-43.22974	618.28680	236.94890	-93.00300	647.53192	205.31485	-88.72478	651.64197	270.87531	49.40494	519.15533	177.63106	-229.09915	509.96381	196.38139	-49.94628	620.44647	276.91019	-124.21404	617.99542	281.91028	100.24169	481.51291	129.36223	-278.37506	478.89832	146.96971	106.21807	262.61563	-26.77045	-281.53882	214.62654	-3.74615	88.62188	14.75707	-128.54865	-255.17758	0.13226	-123.35303	52.66472	20.49312	104.15487	-222.30865	26.41065	105.44147	-121.01702	11.75366	9.20935	-123.23058	9.54207	6.98211	-88.20869	-0.16293	-0.07035	-88.75587	0.17271	-0.36441	-13.16332	-0.90125	9.51265	-8.87844	-5.63666	10.26484
147	2.43333	-165.86378	531.88989	302.88943	-0.38478	538.30975	292.14557	-273.53662	429.07257	-66.87692	79.63645	422.54626	-80.79868	-225.43929	84.72821	53.42534	53.97316	81.18311	54.00340	-244.33670	28.77717	-58.87174	76.43907	28.90870	-59.40266	124.60252	419.83282	-72.80032	-317.50980	424.18320	-55.22630	95.80679	79.53813	79.99413	-265.15649	81.89087	82.45580	-244.04033	822.10742	-95.90535	-254.45348	854.06409	-370.20642	-255.04170	899.60284	-599.18365	-265.62177	915.72284	-682.17529	22.99616	824.02802	-107.71546	12.31175	852.62000	-382.37723	-5.18147	903.90979	-609.46326	-0.08634	917.87885	-693.35791	-89.66562	608.06140	240.36386	-95.88470	652.73114	162.54955	-99.21265	701.39996	122.16199	-101.88573	775.59332	84.59888	-106.85068	851.02173	-14.41114	0.00000	0.00000	0.00000	-43.25055	609.86212	237.35033	-93.12671	638.21722	205.07465	-89.07847	643.47418	270.56769	50.24709	510.37927	180.00757	-228.24333	499.57510	198.08878	-50.10461	612.65613	277.24887	-124.36873	609.77502	282.07053	100.58693	477.53796	129.89536	-278.18597	474.06549	147.15347	106.38008	262.47675	-27.08118	-281.28925	213.86151	-4.04363	88.29863	14.50162	-128.45685	-254.97414	0.55776	-123.73470	52.75211	20.65627	104.31546	-222.47368	25.57602	105.27623	-123.03555	11.57804	9.27168	-125.33709	9.72667	6.53553	-89.36538	-0.20339	-0.05742	-89.97308	0.18209	-0.33930	-13.13294	-0.90166	9.59314	-9.29648	-5.63441	10.54092
148	2.45000	-165.45525	524.33154	304.11557	0.01270	531.34863	293.57635	-273.47754	428.23096	-67.35172	80.09289	422.57013	-81.45233	-225.25690	84.15509	53.66745	54.33804	81.41605	53.86063	-244.27960	28.74617	-58.87703	76.59910	28.84888	-59.45050	125.07037	419.82349	-73.52984	-317.47617	423.34662	-55.79538	96.21170	79.78928	79.78796	-265.00900	81.21039	82.63944	-244.03876	810.90411	-97.05192	-255.12921	841.48248	-371.48352	-256.46405	885.99481	-600.65936	-267.20941	900.43994	-683.93768	22.99336	813.80640	-108.41567	12.20895	841.10510	-383.20511	-4.73662	890.91229	-610.66235	1.18169	904.88068	-694.50305	-89.48254	600.04956	240.77016	-95.74610	643.85559	162.59166	-99.18919	692.10620	121.88132	-102.06841	765.96759	83.90701	-107.11614	840.76117	-15.44457	0.00000	0.00000	0.00000	-43.07057	602.01776	237.81401	-93.01383	629.74487	205.09943	-89.10494	635.84058	270.52823	50.96592	502.23853	181.88477	-227.50589	490.42926	199.62161	-50.00763	605.28156	277.66254	-124.26678	602.13245	282.39236	101.03556	473.78143	130.19322	-277.98993	469.64288	147.40329	106.77888	262.55145	-27.55506	-281.13025	213.12718	-4.13991	88.32707	14.40347	-128.51917	-254.96616	0.91195	-123.89817	53.19263	21.01774	104.32866	-222.69247	24.78562	105.29091	-124.79168	11.51804	9.25310	-127.06239	9.83793	6.15287	-90.50185	-0.20159	-0.04328	-91.08899	0.14011	-0.32014	-13.07278	-0.90462	9.64433	-9.67780	-5.63248	10.81752
149	2.46667	-164.36049	516.84521	305.76395	1.05215	524.90173	295.10095	-273.64719	427.90179	-67.11334	80.64484	422.73541	-81.88589	-224.98309	83.81619	53.70046	54.49685	81.66382	53.55977	-244.38745	29.07887	-59.10718	76.40361	29.01508	-59.78249	125.64120	419.93201	-74.09152	-317.62744	422.92203	-55.52788	96.42981	79.95570	79.38583	-264.70447	80.71373	82.69812	-244.32475	800.73395	-97.98608	-255.87018	828.89520	-372.65750	-257.69977	871.47156	-602.19751	-268.58481	886.75507	-685.30786	22.76933	804.09766	-109.00501	11.92766	830.29865	-383.89902	-3.59289	878.03479	-611.90137	1.96882	891.95398	-695.77466	-88.94453	591.95715	241.04663	-95.47610	634.79718	162.37360	-99.15442	682.70331	121.30231	-102.30927	756.39856	83.05978	-107.51207	831.05255	-16.36954	0.00000	0.00000	0.00000	-42.54808	594.21692	238.05579	-92.69160	620.96851	204.83913	-88.83823	628.28784	270.14566	52.23795	494.13605	183.96091	-226.14078	480.57739	201.90601	-49.51536	598.15656	277.83789	-123.74968	594.54089	282.62323	101.88000	470.33313	130.57242	-277.46637	465.35635	148.38040	107.12304	262.67151	-28.02023	-281.02893	212.75645	-4.01083	87.94003	14.61947	-128.89377	-255.26875	1.72210	-124.29842	53.36053	21.28642	104.05305	-222.72745	24.17625	105.02573	-126.83380	11.45270	9.43585	-129.22141	9.99927	5.74008	-91.52332	-0.25317	-0.03243	-92.14523	0.19290	-0.31956	-13.06669	-0.89612	9.66461	-9.98909	-5.63176	11.13558
